<svg width="40" height="40" viewBox="0 0 40 40" fill="none" xmlns="http://www.w3.org/2000/svg">
<path fill-rule="evenodd" clip-rule="evenodd" d="M17 24.17L13.53 20.7C13.14 20.31 12.51 20.31 12.12 20.7C11.73 21.09 11.73 21.72 12.12 22.11L16.3 26.29C16.69 26.68 17.32 26.68 17.71 26.29L28.29 15.71C28.68 15.32 28.68 14.69 28.29 14.3C27.9 13.91 27.27 13.91 26.88 14.3L17 24.17Z" fill="#0578FF" stroke="#0578FF"/>
<path d="M20 39C30.4934 39 39 30.4934 39 20C39 9.50659 30.4934 1 20 1C9.50659 1 1 9.50659 1 20C1 30.4934 9.50659 39 20 39Z" stroke="#0578FF" stroke-width="2"/>
</svg>
