<svg width="14" height="14" viewBox="0 0 14 14" fill="none" xmlns="http://www.w3.org/2000/svg">
<path fill-rule="evenodd" clip-rule="evenodd" d="M12.8925 0.873911C12.5025 0.483911 11.8725 0.483911 11.4825 0.873911L6.5925 5.75391L1.7025 0.863911C1.3125 0.473911 0.6825 0.473911 0.2925 0.863911C-0.0975 1.25391 -0.0975 1.88391 0.2925 2.27391L5.1825 7.16391L0.2925 12.0539C-0.0975 12.4439 -0.0975 13.0739 0.2925 13.4639C0.6825 13.8539 1.3125 13.8539 1.7025 13.4639L6.5925 8.57391L11.4825 13.4639C11.8725 13.8539 12.5025 13.8539 12.8925 13.4639C13.2825 13.0739 13.2825 12.4439 12.8925 12.0539L8.0025 7.16391L12.8925 2.27391C13.2725 1.89391 13.2725 1.25391 12.8925 0.873911Z" fill="#8A8A8A"/>
</svg>
