<svg width="83" height="46" viewBox="0 0 83 46" fill="none" xmlns="http://www.w3.org/2000/svg">
<g filter="url(#filter0_d_0_546)">
<path d="M23.94 30L22.08 14.16L17.7 30H14.22L9.80997 14.25L8.03997 30H4.46997L7.01997 7.85999H10.62L15.99 25.59L21.33 7.85999H24.93L27.54 30H23.94Z" fill="white"/>
<path d="M37.3033 30.15C35.5633 30.15 34.1733 29.9 33.1333 29.4C32.0933 28.9 31.3233 28.06 30.8233 26.88C30.3433 25.7 30.1033 24.05 30.1033 21.93C30.1033 19.73 30.3433 18.04 30.8233 16.86C31.3233 15.68 32.0833 14.86 33.1033 14.4C34.1433 13.94 35.5433 13.71 37.3033 13.71C39.0833 13.71 40.4833 13.95 41.5033 14.43C42.5433 14.89 43.3133 15.72 43.8133 16.92C44.3133 18.1 44.5633 19.77 44.5633 21.93C44.5633 24.09 44.3233 25.76 43.8433 26.94C43.3633 28.12 42.6033 28.95 41.5633 29.43C40.5233 29.91 39.1033 30.15 37.3033 30.15ZM37.3033 27.18C38.2033 27.18 38.8933 27.06 39.3733 26.82C39.8733 26.58 40.2433 26.09 40.4833 25.35C40.7233 24.59 40.8433 23.44 40.8433 21.9C40.8433 20.38 40.7233 19.25 40.4833 18.51C40.2433 17.75 39.8733 17.26 39.3733 17.04C38.8933 16.8 38.2033 16.68 37.3033 16.68C36.4233 16.68 35.7333 16.8 35.2333 17.04C34.7533 17.26 34.3933 17.75 34.1533 18.51C33.9133 19.25 33.7933 20.38 33.7933 21.9C33.7933 23.44 33.9133 24.59 34.1533 25.35C34.3933 26.09 34.7533 26.58 35.2333 26.82C35.7333 27.06 36.4233 27.18 37.3033 27.18Z" fill="white"/>
<path d="M45.8425 13.92H49.6525L53.6725 26.55L57.7825 13.92H61.5625L55.7125 30H51.4525L45.8425 13.92Z" fill="white"/>
<path d="M70.5539 30C68.1139 30 66.5139 28.63 65.7539 25.89L62.4539 13.92H66.2939L69.2039 25.14C69.3839 25.68 69.6039 26.08 69.8639 26.34C70.1239 26.6 70.3439 26.76 70.5239 26.82C70.7239 26.88 70.9539 26.92 71.2139 26.94L74.5439 13.92H78.3239L73.1639 34.14L71.7239 37.11H68.6939L70.5539 30Z" fill="white"/>
<path d="M70.5 9C72.9853 9 75 6.98528 75 4.5C75 2.01472 72.9853 0 70.5 0C68.0147 0 66 2.01472 66 4.5C66 6.98528 68.0147 9 70.5 9Z" fill="#0578FF"/>
</g>
<defs>
<filter id="filter0_d_0_546" x="-1" y="0" width="84" height="48" filterUnits="userSpaceOnUse" color-interpolation-filters="sRGB">
<feFlood flood-opacity="0" result="BackgroundImageFix"/>
<feColorMatrix in="SourceAlpha" type="matrix" values="0 0 0 0 0 0 0 0 0 0 0 0 0 0 0 0 0 0 127 0" result="hardAlpha"/>
<feOffset dy="4"/>
<feGaussianBlur stdDeviation="2"/>
<feColorMatrix type="matrix" values="0 0 0 0 0 0 0 0 0 0 0 0 0 0 0 0 0 0 0.25 0"/>
<feBlend mode="normal" in2="BackgroundImageFix" result="effect1_dropShadow_0_546"/>
<feBlend mode="normal" in="SourceGraphic" in2="effect1_dropShadow_0_546" result="shape"/>
</filter>
</defs>
</svg>
