<svg width="20" height="30" viewBox="0 0 20 30" fill="none" xmlns="http://www.w3.org/2000/svg">
<path fill-rule="evenodd" clip-rule="evenodd" d="M19.1148 28.2061C19.1148 28.7963 18.6771 29.2792 18.1421 29.2792H2.0159C1.48089 29.2792 1.04315 28.7963 1.04315 28.2061V2.41116C1.04315 1.82093 1.48089 1.33801 2.0159 1.33801H18.1417C18.6767 1.33801 19.1145 1.82093 19.1145 2.41116V28.2061H19.1148Z" stroke="black" stroke-width="1.3" stroke-linecap="round" stroke-linejoin="round"/>
<path fill-rule="evenodd" clip-rule="evenodd" d="M10.1472 27.8201C10.5503 27.8201 10.8772 27.4932 10.8772 27.09C10.8772 26.6868 10.5503 26.3599 10.1472 26.3599C9.74401 26.3599 9.41718 26.6868 9.41718 27.09C9.41718 27.4932 9.74401 27.8201 10.1472 27.8201Z" stroke="black" stroke-width="0.3" stroke-linecap="round" stroke-linejoin="round"/>
<path d="M1.18127 24.4311H18.9767" stroke="black" stroke-width="1.3" stroke-linecap="round" stroke-linejoin="round"/>
</svg>
