<svg width="44" height="61" viewBox="0 0 44 61" fill="none" xmlns="http://www.w3.org/2000/svg">
<path fill-rule="evenodd" clip-rule="evenodd" d="M43.2678 57.276C43.2678 58.5186 42.2464 59.5353 40.9981 59.5353H3.37038C2.12203 59.5353 1.10065 58.5186 1.10065 57.276V2.97093C1.10065 1.72834 2.12203 0.71167 3.37038 0.71167H40.9973C42.2457 0.71167 43.2671 1.72834 43.2671 2.97093V57.276H43.2678Z" stroke="black" stroke-width="1.3" stroke-linecap="round" stroke-linejoin="round"/>
<path fill-rule="evenodd" clip-rule="evenodd" d="M22.1842 56.4634C23.037 56.4634 23.7284 55.7752 23.7284 54.9263C23.7284 54.0774 23.037 53.3893 22.1842 53.3893C21.3314 53.3893 20.64 54.0774 20.64 54.9263C20.64 55.7752 21.3314 56.4634 22.1842 56.4634Z" stroke="black" stroke-linecap="round" stroke-linejoin="round"/>
<path d="M1.42291 49.3287H42.9455" stroke="black" stroke-width="1.3" stroke-linecap="round" stroke-linejoin="round"/>
</svg>
